<?xml version="1.0" encoding="UTF-8"?><svg id="Layer_1" xmlns="http://www.w3.org/2000/svg" xmlns:xlink="http://www.w3.org/1999/xlink" viewBox="0 0 1733.64 398.11"><defs><style>.cls-1{fill:url(#linear-gradient);}.cls-2{fill:url(#radial-gradient-20);}.cls-3{fill:url(#radial-gradient-21);}.cls-4{fill:url(#radial-gradient-30);}.cls-5{fill:url(#radial-gradient-31);}.cls-6{fill:url(#radial-gradient-26);}.cls-7{fill:url(#radial-gradient-27);}.cls-8{fill:url(#radial-gradient-22);}.cls-9{fill:url(#radial-gradient-24);}.cls-10{fill:url(#radial-gradient-23);}.cls-11{fill:url(#radial-gradient-28);}.cls-12{fill:url(#radial-gradient-29);}.cls-13{fill:url(#radial-gradient-25);}.cls-14{fill:url(#radial-gradient-10);}.cls-15{fill:url(#radial-gradient-19);}.cls-16{fill:url(#radial-gradient-18);}.cls-17{fill:url(#radial-gradient-17);}.cls-18{fill:url(#radial-gradient-11);}.cls-19{fill:url(#radial-gradient-16);}.cls-20{fill:url(#radial-gradient-15);}.cls-21{fill:url(#radial-gradient-12);}.cls-22{fill:url(#radial-gradient-14);}.cls-23{fill:url(#radial-gradient-13);}.cls-24{fill:url(#radial-gradient-6);}.cls-25{fill:url(#radial-gradient-5);}.cls-26{fill:url(#radial-gradient-3);}.cls-27{fill:url(#radial-gradient-4);}.cls-28{fill:url(#radial-gradient-9);}.cls-29{fill:url(#radial-gradient-8);}.cls-30{fill:url(#radial-gradient-7);}.cls-31{fill:url(#radial-gradient-2);}.cls-32{fill:url(#radial-gradient);}</style><radialGradient id="radial-gradient" cx="201.52" cy="-388.9" fx="201.52" fy="-388.9" r="196.23" gradientTransform="translate(0 -189.85) scale(1 -1)" gradientUnits="userSpaceOnUse"><stop offset="0" stop-color="#29aae1"/><stop offset=".64" stop-color="#10a7b2"/><stop offset="1" stop-color="#01a79d"/></radialGradient><radialGradient id="radial-gradient-2" cx="201.52" cy="-388.9" fx="201.52" fy="-388.9" r="196.23" xlink:href="#radial-gradient"/><radialGradient id="radial-gradient-3" cx="201.52" cy="-388.9" fx="201.52" fy="-388.9" r="196.23" xlink:href="#radial-gradient"/><radialGradient id="radial-gradient-4" cx="201.52" cy="-388.9" fx="201.52" fy="-388.9" r="196.23" xlink:href="#radial-gradient"/><radialGradient id="radial-gradient-5" cx="201.52" cy="-388.9" fx="201.52" fy="-388.9" r="196.23" xlink:href="#radial-gradient"/><radialGradient id="radial-gradient-6" cx="201.52" cy="-388.9" fx="201.52" fy="-388.9" r="196.23" xlink:href="#radial-gradient"/><radialGradient id="radial-gradient-7" cx="201.52" cy="-388.9" fx="201.52" fy="-388.9" r="196.23" xlink:href="#radial-gradient"/><radialGradient id="radial-gradient-8" cx="201.52" fx="201.52" r="196.23" xlink:href="#radial-gradient"/><radialGradient id="radial-gradient-9" cx="201.52" cy="-388.9" fx="201.52" fy="-388.9" r="196.23" xlink:href="#radial-gradient"/><radialGradient id="radial-gradient-10" cx="201.52" cy="-388.9" fx="201.52" fy="-388.9" r="196.23" xlink:href="#radial-gradient"/><radialGradient id="radial-gradient-11" cx="201.52" cy="-388.9" fx="201.52" fy="-388.9" r="196.23" xlink:href="#radial-gradient"/><radialGradient id="radial-gradient-12" cx="201.52" fx="201.52" r="196.23" xlink:href="#radial-gradient"/><radialGradient id="radial-gradient-13" cx="201.52" cy="-388.9" fx="201.52" fy="-388.9" r="196.23" xlink:href="#radial-gradient"/><radialGradient id="radial-gradient-14" cx="201.52" fx="201.52" r="196.23" xlink:href="#radial-gradient"/><radialGradient id="radial-gradient-15" cx="201.52" cy="-388.9" fx="201.52" fy="-388.9" r="196.23" xlink:href="#radial-gradient"/><radialGradient id="radial-gradient-16" cx="201.52" fx="201.52" r="196.23" xlink:href="#radial-gradient"/><radialGradient id="radial-gradient-17" cx="201.52" cy="-388.9" fx="201.52" fy="-388.9" r="196.23" xlink:href="#radial-gradient"/><radialGradient id="radial-gradient-18" cx="201.52" cy="-388.9" fx="201.52" fy="-388.9" r="196.23" xlink:href="#radial-gradient"/><radialGradient id="radial-gradient-19" cx="201.52" cy="-388.9" fx="201.52" fy="-388.9" r="196.23" xlink:href="#radial-gradient"/><radialGradient id="radial-gradient-20" cy="-388.9" fy="-388.9" r="196.23" xlink:href="#radial-gradient"/><radialGradient id="radial-gradient-21" cy="-388.9" fy="-388.9" r="196.23" xlink:href="#radial-gradient"/><radialGradient id="radial-gradient-22" cx="201.52" cy="-388.9" fx="201.52" fy="-388.9" r="196.23" xlink:href="#radial-gradient"/><radialGradient id="radial-gradient-23" cx="201.52" fx="201.52" r="196.23" xlink:href="#radial-gradient"/><radialGradient id="radial-gradient-24" cy="-388.9" fy="-388.9" r="196.23" xlink:href="#radial-gradient"/><radialGradient id="radial-gradient-25" cx="201.52" fx="201.52" r="196.23" xlink:href="#radial-gradient"/><radialGradient id="radial-gradient-26" cx="201.52" fx="201.52" r="196.23" xlink:href="#radial-gradient"/><radialGradient id="radial-gradient-27" cx="201.52" cy="-388.9" fx="201.52" fy="-388.9" r="196.23" xlink:href="#radial-gradient"/><radialGradient id="radial-gradient-28" cx="201.52" cy="-388.9" fx="201.52" fy="-388.9" r="196.23" xlink:href="#radial-gradient"/><radialGradient id="radial-gradient-29" cx="201.52" cy="-388.9" fx="201.52" fy="-388.9" r="196.23" xlink:href="#radial-gradient"/><radialGradient id="radial-gradient-30" cy="-388.9" fy="-388.9" r="196.23" xlink:href="#radial-gradient"/><radialGradient id="radial-gradient-31" cx="201.52" cy="-388.9" fx="201.52" fy="-388.9" r="196.23" xlink:href="#radial-gradient"/><linearGradient id="linear-gradient" x1="487.08" y1="193.78" x2="1733.64" y2="193.78" gradientUnits="userSpaceOnUse"><stop offset="0" stop-color="#29aae1"/><stop offset=".64" stop-color="#10a7b2"/><stop offset="1" stop-color="#01a79d"/></linearGradient></defs><path class="cls-32" d="M292.37,378.48c-33.44-48.95-68.6-98.62-92.12-153.33-17.04-39.62-23.55-81.19-20.89-124.16,1.86-30.01,7.06-59.73,12.87-89.19l-3.14,3.14c11.36-2,23.31-1.41,34.75-.52,14.22,1.1,28.4,3.27,42.27,6.62,18.28,4.42,35.16,11.65,49.64,23.78,18.59,15.57,33.64,36.01,41.18,59.18,2.25,6.92,3.91,14.07,4.75,21.3,.96,8.27,.37,16.3,.3,24.57-.13,14.69,4.24,29.13,11.81,41.66,3.25,5.39,7.09,10.45,11.28,15.15,1.52,1.7,3.09,3.37,4.72,4.97,2.44,2.39,5.96,4.52,2.84,7.79s-7.42,3.55-11.14,5.28c-3.02,1.4-5.63,3.55-7.5,6.31-4.08,6.01-4.18,13.72-2.02,20.45l1.16-4.38c-9.13,8.25-9.82,18.28-7.49,29.71l2.07-5.08c-12.2,6.98-11.15,24.72-9.23,36.64,.98,6.1,1.3,12.28-5.09,15.29-4.33,2.04-9.87,2.37-14.56,1.76-13.3-1.72-26.51-6.9-39.34-10.64-2.53-.74-5.06-1.47-7.6-2.14-4.04-1.07-6.21-.09-9.6,2.39-5.62,4.1-9.7,9.85-11.51,16.6-4.75,17.69,4.33,36.96,13.82,51.41,3.17,4.82,10.96,.32,7.77-4.54-10.61-16.15-24.05-45.57-1.61-58.19l-3.47,.45c11.41,2.82,22.58,6.59,33.91,9.71,9.55,2.63,18.99,5.24,28.94,3.48,10.86-1.91,18.67-9.73,18-21.16-.34-5.9-1.83-11.54-1.76-17.5,.06-5.44,.6-12.77,5.86-15.78,1.82-1.04,2.47-3.12,2.07-5.08-1.7-8.36-1.53-14.9,5.18-20.96,1.14-1.03,1.62-2.93,1.16-4.38-2.02-6.29-1.48-13.9,5.53-16.62,6.26-2.43,13.34-4.58,16.07-11.48s-2.03-11.63-6.56-16.17c-3.24-3.25-6.33-6.69-9.1-10.36-8.7-11.55-14.68-25.33-15.5-39.88-.5-8.8,.66-17.53-.12-26.36-.66-7.45-1.96-14.86-3.99-22.06-12.12-43.13-47.42-79.41-90.49-91.68-15.67-4.46-31.9-7.13-48.1-8.65-13.78-1.3-28-1.96-41.69,.46-1.42,.25-2.87,1.74-3.14,3.14-9.54,48.37-18.11,98.54-11.64,147.89,6.11,46.55,26.37,89.08,49.99,129.15,19.49,33.07,41.05,64.9,62.7,96.58,3.25,4.75,11.05,.26,7.77-4.54v-.03Z"/><path class="cls-31" d="M211.16,376.2v-87.2c0-5.79-9-5.8-9,0v87.2c0,5.79,9,5.8,9,0h0Z"/><path class="cls-26" d="M169.74,383.19c4.75-5.26,9.49-10.53,14.24-15.79,1.78-1.97,3.76-3.62,4.1-6.37,.23-1.86,0-3.91,0-5.78v-43.15l-1.32,3.18c11.87-11.87,23.75-23.75,35.62-35.62,4.1-4.1-2.26-10.47-6.36-6.36l-31.31,31.31c-3.36,3.36-5.63,5.24-5.63,10.18v46.34l1.32-3.18c-5.67,6.29-11.35,12.59-17.02,18.88-3.87,4.29,2.48,10.68,6.36,6.36h0Z"/><path class="cls-27" d="M162.81,387.99c-1.88,1.34-4.27,1.74-5.94-.21-1.46-1.69-1.18-4.3,.56-5.69s4.22-1.04,5.57,.66c1.64,2.07,.71,4.41-1.09,5.94-4.42,3.76,1.97,10.1,6.36,6.36,5.41-4.6,6-12.82,1.47-18.23-4.4-5.26-12.41-5.99-17.78-1.82s-6.63,12.11-2.63,17.68c4.11,5.72,12.25,7.21,18.03,3.08,1.98-1.41,2.92-3.92,1.61-6.16-1.14-1.95-4.17-3.03-6.16-1.61h0Z"/><path class="cls-25" d="M209.49,387.99c-1.88,1.34-4.27,1.74-5.94-.21-1.46-1.69-1.18-4.3,.56-5.69s4.22-1.04,5.57,.66c1.64,2.07,.71,4.41-1.09,5.94-4.42,3.76,1.97,10.1,6.36,6.36,5.41-4.6,6-12.82,1.47-18.23-4.4-5.26-12.41-5.99-17.78-1.82s-6.63,12.11-2.63,17.68c4.11,5.72,12.25,7.21,18.03,3.08,1.98-1.41,2.92-3.92,1.61-6.16-1.14-1.95-4.17-3.03-6.16-1.61h0Z"/><path class="cls-24" d="M135.11,370.01c3.87-4.31,7.74-8.61,11.6-12.92,2.79-3.1,6.89-6.21,7.03-10.6,.37-11.26-.05-22.6-.08-33.86l-1.32,3.18c19.45-19.45,38.9-38.9,58.34-58.34,4.1-4.1-2.26-10.47-6.36-6.36-11.6,11.6-23.19,23.19-34.79,34.79l-19.87,19.87c-1.19,1.19-2.64,2.34-3.68,3.68-1.87,2.4-1.32,5.58-1.32,8.47,.02,9.88,.05,19.76,.07,29.65l1.32-3.18c-5.77,6.43-11.55,12.86-17.32,19.28-3.86,4.3,2.48,10.68,6.36,6.36h0l.02-.02Z"/><path class="cls-30" d="M128.18,374.82c-1.88,1.34-4.27,1.74-5.94-.21-1.46-1.69-1.18-4.3,.56-5.69s4.22-1.04,5.57,.66c1.64,2.07,.71,4.41-1.09,5.94-4.42,3.76,1.97,10.1,6.36,6.36,5.41-4.6,6-12.82,1.47-18.23-4.4-5.26-12.41-5.99-17.78-1.82s-6.63,12.11-2.63,17.68c4.11,5.72,12.25,7.21,18.03,3.08,1.98-1.41,2.92-3.92,1.61-6.16-1.14-1.95-4.17-3.03-6.16-1.61h0Z"/><path class="cls-29" d="M58.74,255.67h118.95c5.79,0,5.8-9,0-9H58.74c-5.79,0-5.8,9,0,9h0Z"/><path class="cls-28" d="M140.44,247.99c-9.55,9.55-19.1,19.1-28.65,28.65-4.1,4.1,2.26,10.47,6.36,6.36,9.55-9.55,19.1-19.1,28.65-28.65,4.1-4.1-2.26-10.47-6.36-6.36h0Z"/><path class="cls-14" d="M110.66,289.85c-1.88,1.34-4.27,1.74-5.94-.21-1.46-1.69-1.18-4.3,.56-5.69s4.22-1.04,5.57,.66c1.64,2.07,.71,4.41-1.09,5.94-4.42,3.76,1.97,10.1,6.36,6.36,5.41-4.6,6-12.82,1.47-18.23s-12.41-5.99-17.78-1.82-6.63,12.11-2.63,17.68c4.11,5.72,12.25,7.21,18.03,3.08,1.98-1.41,2.92-3.92,1.61-6.16-1.14-1.95-4.17-3.03-6.16-1.61h0Z"/><path class="cls-18" d="M51.87,253.96c-1.88,1.34-4.27,1.74-5.94-.21-1.46-1.69-1.18-4.3,.56-5.69s4.22-1.04,5.57,.66c1.64,2.07,.71,4.41-1.09,5.94-4.42,3.76,1.97,10.1,6.36,6.36,5.41-4.6,6-12.82,1.47-18.23s-12.41-5.99-17.78-1.82-6.63,12.11-2.63,17.68c4.11,5.72,12.25,7.21,18.03,3.08,1.98-1.41,2.92-3.92,1.61-6.16-1.14-1.95-4.17-3.03-6.16-1.61h0Z"/><path class="cls-21" d="M193.02,229.81c-22.75,22.75-45.51,45.51-68.26,68.26-3.21,3.21-6.43,6.43-9.64,9.64l3.18-1.32c-9.63,0-19.65-.85-29.24,0-3.96,.35-6.94,4.58-9.64,7.18-3.67,3.53-7.33,7.06-11,10.6-4.18,4.03,2.19,10.39,6.36,6.36l17.08-16.46-3.18,1.32c9.61,0,19.68,.93,29.24,0,4.99-.49,9.68-7.44,12.96-10.72,17.77-17.77,35.53-35.53,53.3-53.3l15.2-15.2c4.1-4.1-2.26-10.47-6.36-6.36h0Z"/><path class="cls-23" d="M67.22,337.14c-1.88,1.34-4.27,1.74-5.94-.21-1.46-1.69-1.18-4.3,.56-5.69s4.22-1.04,5.57,.66c1.64,2.07,.71,4.41-1.09,5.94-4.42,3.76,1.97,10.1,6.36,6.36,5.41-4.6,6-12.82,1.47-18.23s-12.41-5.99-17.78-1.82-6.63,12.11-2.63,17.68c4.11,5.72,12.25,7.21,18.03,3.08,1.98-1.41,2.92-3.92,1.61-6.16-1.14-1.95-4.17-3.03-6.16-1.61h0Z"/><path class="cls-22" d="M138.16,218.45l16.37-16.37c4.1-4.1-2.26-10.47-6.36-6.36l-16.37,16.37c-4.1,4.1,2.26,10.47,6.36,6.36h0Z"/><path class="cls-20" d="M91.26,217.99c5.81-5.42,11.62-10.85,17.43-16.27l-3.18,1.32h80.08c5.79,0,5.8-9,0-9H116.04c-3.98,0-10.33-1.2-13.73,1.34-6.24,4.66-11.71,10.93-17.41,16.26-4.24,3.96,2.13,10.32,6.36,6.36h0Z"/><path class="cls-19" d="M83.88,224.58c-1.88,1.34-4.27,1.74-5.94-.21-1.46-1.69-1.18-4.3,.56-5.69s4.22-1.04,5.57,.66c1.64,2.07,.71,4.41-1.09,5.94-4.42,3.76,1.97,10.1,6.36,6.36,5.41-4.6,6-12.82,1.47-18.23-4.4-5.26-12.41-5.99-17.78-1.82s-6.63,12.11-2.63,17.68c4.11,5.72,12.25,7.21,18.03,3.08,1.98-1.41,2.92-3.92,1.61-6.16-1.14-1.95-4.17-3.03-6.16-1.61h0Z"/><path class="cls-17" d="M130.46,225.5c-1.88,1.34-4.27,1.74-5.94-.21-1.46-1.69-1.18-4.3,.56-5.69s4.22-1.04,5.57,.66c1.64,2.07,.71,4.41-1.09,5.94-4.42,3.76,1.97,10.1,6.36,6.36,5.41-4.6,6-12.82,1.47-18.23-4.4-5.26-12.41-5.99-17.78-1.82s-6.63,12.11-2.63,17.68c4.11,5.72,12.25,7.21,18.03,3.08,1.98-1.41,2.92-3.92,1.61-6.16-1.14-1.95-4.17-3.03-6.16-1.61h0Z"/><path class="cls-16" d="M106.9,170.45c-8.09-8.09-16.17-16.17-24.26-24.26-4.1-4.1-10.47,2.26-6.36,6.36,8.09,8.09,16.17,16.17,24.26,24.26,4.1,4.1,10.47-2.26,6.36-6.36h0Z"/><path class="cls-15" d="M174.34,117.18h-36.46l3.18,1.32-23.49-23.49c-4.1-4.1-10.47,2.26-6.36,6.36l13.15,13.15,8.11,8.11c1.7,1.7,2.89,3.23,5.44,3.54,6.04,.73,12.62,0,18.69,0h17.73c5.91,0,5.8-9,0-9h0Z"/><path class="cls-2" d="M176.64,75.96h-28.6c1.06,.44,2.12,.88,3.18,1.32-15.97-16.02-31.95-32.04-47.92-48.06-4.09-4.11-10.46,2.26-6.36,6.36,9.51,9.53,19.01,19.07,28.52,28.6l16.42,16.47c.96,.97,1.89,2.14,2.97,2.98,2.16,1.69,4.53,1.33,7.12,1.33h24.68c5.79,0,5.8-9,0-9h0Z"/><path class="cls-3" d="M142.7,22.74c11.43,11.43,22.87,22.87,34.3,34.3,4.1,4.1,10.47-2.26,6.36-6.36-11.43-11.43-22.87-22.87-34.3-34.3-4.1-4.1-10.47,2.26-6.36,6.36h0Z"/><path class="cls-8" d="M175.94,148.8h-57.48l3.18,1.32c-9.16-9.16-18.32-18.32-27.48-27.48l-14.92-14.92c-.9-.9-1.88-2.19-3.02-2.82-2.1-1.15-5.35-.61-7.63-.61h-22.83c-5.79,0-5.8,9,0,9h28.19l-3.18-1.32c12.65,12.65,25.3,25.3,37.95,37.95,3.65,3.65,6.4,7.88,11.85,7.88h55.38c5.79,0,5.8-9,0-9h-.01Z"/><path class="cls-10" d="M22.74,198.46c11.92,0,24.3,1.04,36.16,0,4.7-.41,8.13-5.58,11.29-8.74,4.3-4.3,8.6-8.6,12.9-12.9l-3.18,1.32h96.03c5.79,0,5.8-9,0-9H92.57c-4.4,0-12.23-1.51-15.96,1.44s-7.01,7.01-10.39,10.39l-9.82,9.82,3.18-1.32H22.73c-5.79,0-5.8,9,0,9h0Z"/><path class="cls-9" d="M90.38,249.73c-9.76,9.76-19.52,19.52-29.27,29.27l3.18-1.32c-8.58,.01-17.16,.03-25.74,.04-5.79,0-5.8,9.01,0,9,6.36,0,12.71-.02,19.07-.03,2.15,0,4.53,.27,6.67,0,2.51-.32,3.69-1.83,5.35-3.49,9.03-9.03,18.07-18.07,27.1-27.1,4.1-4.1-2.26-10.47-6.36-6.36h0Z"/><path class="cls-13" d="M30.75,285.01c-1.88,1.34-4.27,1.74-5.94-.21-1.46-1.69-1.18-4.3,.56-5.69s4.22-1.04,5.57,.66c1.64,2.07,.71,4.41-1.09,5.94-4.42,3.76,1.97,10.1,6.36,6.36,5.41-4.6,6-12.82,1.47-18.23s-12.41-5.99-17.78-1.82-6.63,12.11-2.63,17.68c4.11,5.72,12.25,7.21,18.03,3.08,1.98-1.41,2.92-3.92,1.61-6.16-1.14-1.95-4.17-3.03-6.16-1.61h0Z"/><path class="cls-6" d="M15.83,196.74c-1.88,1.34-4.27,1.74-5.94-.21-1.46-1.69-1.18-4.3,.56-5.69s4.22-1.04,5.57,.66c1.64,2.07,.71,4.41-1.09,5.94-4.42,3.76,1.97,10.1,6.36,6.36,5.41-4.6,6-12.82,1.47-18.23-4.4-5.26-12.41-5.99-17.78-1.82s-6.63,12.11-2.63,17.68c4.11,5.72,12.25,7.21,18.03,3.08,1.98-1.41,2.92-3.92,1.61-6.16-1.14-1.95-4.17-3.03-6.16-1.61h0Z"/><path class="cls-7" d="M75.45,145.22c-1.88,1.34-4.27,1.74-5.94-.21-1.46-1.69-1.18-4.3,.56-5.69s4.22-1.04,5.57,.66c1.64,2.07,.71,4.41-1.09,5.94-4.42,3.76,1.97,10.1,6.36,6.36,5.41-4.6,6-12.82,1.47-18.23s-12.41-5.99-17.78-1.82-6.63,12.11-2.63,17.68c4.11,5.72,12.25,7.21,18.03,3.08,1.98-1.41,2.92-3.92,1.61-6.16-1.14-1.95-4.17-3.03-6.16-1.61Z"/><path class="cls-11" d="M110.6,93.8c-1.88,1.34-4.27,1.74-5.94-.21-1.46-1.69-1.18-4.3,.56-5.69s4.22-1.04,5.57,.66c1.64,2.07,.71,4.41-1.09,5.94-4.42,3.76,1.97,10.1,6.36,6.36,5.41-4.6,6-12.82,1.47-18.23s-12.41-5.99-17.78-1.82-6.63,12.11-2.63,17.68,12.25,7.21,18.03,3.08c1.98-1.41,2.92-3.92,1.61-6.16-1.14-1.95-4.17-3.03-6.16-1.61Z"/><path class="cls-12" d="M37.27,111.58c-1.88,1.34-4.27,1.74-5.94-.21-1.46-1.69-1.18-4.3,.56-5.69,1.74-1.39,4.22-1.04,5.57,.66,1.64,2.07,.71,4.41-1.09,5.94-4.42,3.76,1.97,10.1,6.36,6.36,5.41-4.6,6-12.82,1.47-18.23s-12.41-5.99-17.78-1.82-6.63,12.11-2.63,17.68,12.25,7.21,18.03,3.08c1.98-1.41,2.92-3.92,1.61-6.16-1.14-1.95-4.17-3.03-6.16-1.61Z"/><path class="cls-4" d="M142.14,15.68c-1.88,1.34-4.27,1.74-5.94-.21-1.46-1.69-1.18-4.3,.56-5.69s4.22-1.04,5.57,.66c1.64,2.07,.71,4.41-1.09,5.94-4.42,3.76,1.97,10.1,6.36,6.36,5.41-4.6,6-12.82,1.47-18.23-4.4-5.26-12.41-5.99-17.78-1.82s-6.63,12.11-2.63,17.68c4,5.57,12.25,7.21,18.03,3.08,1.98-1.41,2.92-3.92,1.61-6.16-1.14-1.95-4.17-3.03-6.16-1.61Z"/><path class="cls-5" d="M97.86,28.51c-1.88,1.34-4.27,1.74-5.94-.21-1.46-1.69-1.18-4.3,.56-5.69s4.22-1.04,5.57,.66c1.64,2.07,.71,4.41-1.09,5.94-4.42,3.76,1.97,10.1,6.36,6.36,5.41-4.6,6-12.82,1.47-18.23-4.4-5.26-12.41-5.99-17.78-1.82s-6.63,12.11-2.63,17.68,12.25,7.21,18.03,3.08c1.98-1.41,2.92-3.92,1.61-6.16-1.14-1.95-4.17-3.03-6.16-1.61Z"/><path class="cls-1" d="M813.85,308.58v12.84h-106.72v-12.84c32.64-.73,39.98-6.97,37.41-34.84l-13.94-159.53-74.82,207.94h-27.14l-75.18-209.41-13.94,156.97c-2.57,29.71,4.77,37.41,36.67,38.88v12.84h-89.12v-12.84c25.31-1.1,30.81-8.07,33.74-38.88l13.94-155.5c2.2-24.94-2.57-28.61-28.61-29.34v-12.84h73.72l72.62,203.91,72.98-203.91h72.62v12.84c-27.14,.73-32.27,5.13-30.07,29.34l14.3,161.37c2.2,26.04,8.44,32.64,31.54,33.01Zm48.04-92.79c-.37,2.93-.37,6.23-.37,9.54,0,39.61,21.27,65.65,54.65,65.65,21.64,0,39.24-11,46.94-28.97l11.74,3.3c-7.7,41.08-27.87,61.25-65.65,61.25-48.41,0-78.85-34.84-78.85-88.02,0-56.84,29.34-95.35,78.85-95.35,43.28,0,67.11,26.41,66.75,72.62h-114.06Zm1.83-15.77h76.28c0-24.57-10.27-41.81-34.84-41.81-20.54,0-35.94,14.67-41.44,41.81Zm324.57,110.39v11h-53.54l-4.04-3.3-2.2-26.77c-13.57,24.21-30.81,35.21-55.01,35.21-39.61,0-68.22-33.01-68.22-86.19,0-57.21,28.97-97.19,79.95-97.19,15.4,0,31.54,4.03,43.28,12.84v-47.31c0-19.44-5.87-23.84-31.91-23.84v-9.54l55.38-14.3h8.8v217.85c0,24.21,4.77,29.71,27.51,31.54Zm-59.78-34.11v-66.75c0-34.84-14.3-50.98-39.24-50.98-31.54,0-48.04,28.24-48.04,71.52s16.5,67.11,44.38,67.11c15.04,0,29.34-6.23,42.91-20.9Zm260.75,28.61v11l-55.01,7.7-5.13-4.03v-28.24c-13.2,24.21-28.61,35.21-53.18,35.21-30.07,0-51.34-19.8-51.34-60.15v-85.45c0-14.67-4.77-19.8-19.8-23.11v-10.27h52.08v108.92c0,31.91,11.37,40.71,30.81,40.71,15.04,0,28.24-6.6,41.44-21.64v-94.62c0-17.24-3.67-20.54-25.3-22.74v-10.64h57.58v130.56c0,22.74,5.5,26.77,27.87,26.77Zm27.51,9.54l-1.83-49.88h16.87c5.13,33.01,19.8,46.21,42.17,46.21,18.71,0,30.07-8.43,30.07-23.1s-7.7-22.37-26.04-30.44l-26.04-11.37c-24.94-11-37.04-28.24-37.04-50.98,0-31.91,23.84-51.71,62.71-51.71,18.34,0,38.88,4.4,54.28,12.1l1.83,43.64h-16.87c-5.13-26.77-19.8-39.97-42.18-39.97-18.7,0-30.07,8.43-30.07,23.1s7.7,22.37,26.04,30.44l26.04,11.37c24.94,11,37.04,28.24,37.04,50.98,0,31.91-23.84,51.71-62.71,51.71-18.34,0-38.88-4.4-54.28-12.1Zm316.87-30.44c-3.67,24.94-10.27,41.08-35.21,41.08-16.87,0-30.07-9.54-33.01-31.17-11,21.27-30.07,32.64-49.51,32.64-24.94,0-42.54-15.04-42.54-39.24,0-25.67,17.6-38.88,51.34-49.51l39.98-12.47v-15.04c0-29.71-14.67-44.74-38.51-44.74-15.4,0-28.24,4.03-35.94,8.43,2.2,15.77,18.34,18.34,18.34,33.01,0,11.37-9.9,20.54-22.74,20.54-13.94,0-22.74-10.64-22.74-25.67,0-31.91,39.98-58.68,77.02-58.68,33.37,0,56.85,19.8,56.85,64.91v75.18c0,12.47,3.3,17.24,10.27,17.24,7.34,0,11.74-5.87,15.4-19.44l11,2.93Zm-68.95-7.33v-35.57l-25.67,9.17c-20.54,7.33-31.54,13.57-31.54,28.97,0,13.2,9.17,21.27,23.11,21.27,11.37,0,23.84-6.97,34.11-23.84Z"/></svg>