<?xml version="1.0" encoding="UTF-8"?><svg id="Layer_1" xmlns="http://www.w3.org/2000/svg" xmlns:xlink="http://www.w3.org/1999/xlink" viewBox="0 0 403.07 398.11"><defs><style>.cls-1{fill:url(#radial-gradient-3);}.cls-2{fill:url(#radial-gradient-4);}.cls-3{fill:url(#radial-gradient-2);}.cls-4{fill:url(#radial-gradient);}</style><radialGradient id="radial-gradient" cx="201.53" cy="199.05" fx="201.53" fy="199.05" r="196.23" gradientUnits="userSpaceOnUse"><stop offset="0" stop-color="#27aae1"/><stop offset=".64" stop-color="#0ca7b2"/><stop offset="1" stop-color="#00a79d"/></radialGradient><radialGradient id="radial-gradient-2" r="196.23" xlink:href="#radial-gradient"/><radialGradient id="radial-gradient-3" r="196.23" xlink:href="#radial-gradient"/><radialGradient id="radial-gradient-4" r="196.23" xlink:href="#radial-gradient"/></defs><path class="cls-4" d="M292.38,378.48c-33.44-48.95-68.6-98.62-92.12-153.33-17.04-39.62-23.55-81.19-20.89-124.16,1.86-30.01,7.06-59.73,12.87-89.19l-3.14,3.14c11.36-2,23.31-1.41,34.75-.52,14.22,1.1,28.4,3.27,42.27,6.62,18.28,4.42,35.16,11.65,49.64,23.78,18.59,15.57,33.64,36.01,41.18,59.18,2.25,6.92,3.91,14.07,4.75,21.3,.96,8.27,.37,16.3,.3,24.57-.13,14.69,4.24,29.13,11.81,41.66,3.25,5.39,7.09,10.45,11.28,15.15,1.52,1.7,3.09,3.37,4.72,4.97,2.44,2.39,5.96,4.52,2.84,7.79s-7.42,3.55-11.14,5.28c-3.02,1.4-5.63,3.55-7.5,6.31-4.08,6.01-4.18,13.72-2.02,20.45l1.16-4.38c-9.13,8.25-9.82,18.28-7.49,29.71l2.07-5.08c-12.2,6.98-11.15,24.72-9.23,36.64,.98,6.1,1.3,12.28-5.09,15.29-4.33,2.04-9.87,2.37-14.56,1.76-13.3-1.72-26.51-6.9-39.34-10.64-2.53-.74-5.06-1.47-7.6-2.14-4.04-1.07-6.21-.09-9.6,2.39-5.62,4.1-9.7,9.85-11.51,16.6-4.75,17.69,4.33,36.96,13.82,51.41,3.17,4.82,10.96,.32,7.77-4.54-10.61-16.15-24.05-45.57-1.61-58.19l-3.47,.45c11.41,2.82,22.58,6.59,33.91,9.71,9.55,2.63,18.99,5.24,28.94,3.48,10.86-1.91,18.67-9.73,18-21.16-.34-5.9-1.83-11.54-1.76-17.5,.06-5.44,.6-12.77,5.86-15.78,1.82-1.04,2.47-3.12,2.07-5.08-1.7-8.36-1.53-14.9,5.18-20.96,1.14-1.03,1.62-2.93,1.16-4.38-2.02-6.29-1.48-13.9,5.53-16.62,6.26-2.43,13.34-4.58,16.07-11.48s-2.03-11.63-6.56-16.17c-3.24-3.25-6.33-6.69-9.1-10.36-8.7-11.55-14.68-25.33-15.5-39.88-.5-8.8,.66-17.53-.12-26.36-.66-7.45-1.96-14.86-3.99-22.06-12.12-43.13-47.42-79.41-90.49-91.68-15.67-4.46-31.9-7.13-48.1-8.65-13.78-1.3-28-1.96-41.69,.46-1.42,.25-2.87,1.74-3.14,3.14-9.54,48.37-18.11,98.54-11.64,147.89,6.11,46.55,26.37,89.08,49.99,129.15,19.49,33.07,41.05,64.9,62.7,96.58,3.25,4.75,11.05,.26,7.77-4.54Z"/><path class="cls-4" d="M211.17,376.2c0-25.42,0-50.84,0-76.27,0-3.64,0-7.28,0-10.93,0-5.79-9-5.8-9,0,0,25.42,0,50.84,0,76.27,0,3.64,0,7.28,0,10.93,0,5.79,9,5.8,9,0h0Z"/><path class="cls-4" d="M169.75,383.19c4.75-5.26,9.49-10.53,14.24-15.79,1.78-1.97,3.76-3.62,4.1-6.37,.23-1.86,0-3.91,0-5.78v-43.15l-1.32,3.18c11.87-11.87,23.75-23.75,35.62-35.62,4.1-4.1-2.26-10.47-6.36-6.36-10.44,10.44-20.87,20.87-31.31,31.31-3.36,3.36-5.63,5.24-5.63,10.18v46.34l1.32-3.18c-5.67,6.29-11.35,12.59-17.02,18.88-3.87,4.29,2.48,10.68,6.36,6.36h0Z"/><path class="cls-4" d="M162.82,387.99c-1.88,1.34-4.27,1.74-5.94-.21-1.46-1.69-1.18-4.3,.56-5.69s4.22-1.04,5.57,.66c1.64,2.07,.71,4.41-1.09,5.94-4.42,3.76,1.97,10.1,6.36,6.36,5.41-4.6,6-12.82,1.47-18.23-4.4-5.26-12.41-5.99-17.78-1.82s-6.63,12.11-2.63,17.68c4.11,5.72,12.25,7.21,18.03,3.08,1.98-1.41,2.92-3.92,1.61-6.16-1.14-1.95-4.17-3.03-6.16-1.61Z"/><path class="cls-4" d="M209.5,387.99c-1.88,1.34-4.27,1.74-5.94-.21-1.46-1.69-1.18-4.3,.56-5.69s4.22-1.04,5.57,.66c1.64,2.07,.71,4.41-1.09,5.94-4.42,3.76,1.97,10.1,6.36,6.36,5.41-4.6,6-12.82,1.47-18.23-4.4-5.26-12.41-5.99-17.78-1.82s-6.63,12.11-2.63,17.68c4.11,5.72,12.25,7.21,18.03,3.08,1.98-1.41,2.92-3.92,1.61-6.16-1.14-1.95-4.17-3.03-6.16-1.61Z"/><path class="cls-4" d="M135.12,370.01c3.87-4.31,7.74-8.61,11.6-12.92,2.79-3.1,6.89-6.21,7.03-10.6,.37-11.26-.05-22.6-.08-33.86l-1.32,3.18c19.45-19.45,38.9-38.9,58.34-58.34,4.1-4.1-2.26-10.47-6.36-6.36-11.6,11.6-23.19,23.19-34.79,34.79l-19.87,19.87c-1.19,1.19-2.64,2.34-3.68,3.68-1.87,2.4-1.32,5.58-1.32,8.47,.02,9.88,.05,19.76,.07,29.65l1.32-3.18c-5.77,6.43-11.55,12.86-17.32,19.28-3.86,4.3,2.48,10.68,6.36,6.36h0Z"/><path class="cls-4" d="M128.19,374.82c-1.88,1.34-4.27,1.74-5.94-.21-1.46-1.69-1.18-4.3,.56-5.69s4.22-1.04,5.57,.66c1.64,2.07,.71,4.41-1.09,5.94-4.42,3.76,1.97,10.1,6.36,6.36,5.41-4.6,6-12.82,1.47-18.23-4.4-5.26-12.41-5.99-17.78-1.82s-6.63,12.11-2.63,17.68c4.11,5.72,12.25,7.21,18.03,3.08,1.98-1.41,2.92-3.92,1.61-6.16-1.14-1.95-4.17-3.03-6.16-1.61Z"/><path class="cls-4" d="M58.75,255.67c34.71,0,69.42,0,104.13,0,4.94,0,9.88,0,14.82,0,5.79,0,5.8-9,0-9-34.71,0-69.42,0-104.13,0-4.94,0-9.88,0-14.82,0-5.79,0-5.8,9,0,9h0Z"/><path class="cls-4" d="M140.45,247.99c-9.55,9.55-19.1,19.1-28.65,28.65-4.1,4.1,2.26,10.47,6.36,6.36,9.55-9.55,19.1-19.1,28.65-28.65,4.1-4.1-2.26-10.47-6.36-6.36h0Z"/><path class="cls-4" d="M110.67,289.85c-1.88,1.34-4.27,1.74-5.94-.21-1.46-1.69-1.18-4.3,.56-5.69s4.22-1.04,5.57,.66c1.64,2.07,.71,4.41-1.09,5.94-4.42,3.76,1.97,10.1,6.36,6.36,5.41-4.6,6-12.82,1.47-18.23s-12.41-5.99-17.78-1.82-6.63,12.11-2.63,17.68c4.11,5.72,12.25,7.21,18.03,3.08,1.98-1.41,2.92-3.92,1.61-6.16-1.14-1.95-4.17-3.03-6.16-1.61Z"/><path class="cls-4" d="M51.88,253.96c-1.88,1.34-4.27,1.74-5.94-.21-1.46-1.69-1.18-4.3,.56-5.69s4.22-1.04,5.57,.66c1.64,2.07,.71,4.41-1.09,5.94-4.42,3.76,1.97,10.1,6.36,6.36,5.41-4.6,6-12.82,1.47-18.23s-12.41-5.99-17.78-1.82-6.63,12.11-2.63,17.68c4.11,5.72,12.25,7.21,18.03,3.08,1.98-1.41,2.92-3.92,1.61-6.16-1.14-1.95-4.17-3.03-6.16-1.61Z"/><path class="cls-3" d="M193.03,229.81c-22.75,22.75-45.51,45.51-68.26,68.26-3.21,3.21-6.43,6.43-9.64,9.64l3.18-1.32c-9.63,0-19.65-.85-29.24,0-3.96,.35-6.94,4.58-9.64,7.18-3.67,3.53-7.33,7.06-11,10.6-4.18,4.03,2.19,10.39,6.36,6.36l17.08-16.46-3.18,1.32c9.61,0,19.68,.93,29.24,0,4.99-.49,9.68-7.44,12.96-10.72,17.77-17.77,35.53-35.53,53.3-53.3,5.07-5.07,10.13-10.13,15.2-15.2,4.1-4.1-2.26-10.47-6.36-6.36h0Z"/><path class="cls-4" d="M67.23,337.14c-1.88,1.34-4.27,1.74-5.94-.21-1.46-1.69-1.18-4.3,.56-5.69s4.22-1.04,5.57,.66c1.64,2.07,.71,4.41-1.09,5.94-4.42,3.76,1.97,10.1,6.36,6.36,5.41-4.6,6-12.82,1.47-18.23s-12.41-5.99-17.78-1.82-6.63,12.11-2.63,17.68c4.11,5.72,12.25,7.21,18.03,3.08,1.98-1.41,2.92-3.92,1.61-6.16-1.14-1.95-4.17-3.03-6.16-1.61Z"/><path class="cls-4" d="M138.17,218.45c5.46-5.46,10.91-10.91,16.37-16.37,4.1-4.1-2.26-10.47-6.36-6.36-5.46,5.46-10.91,10.91-16.37,16.37-4.1,4.1,2.26,10.47,6.36,6.36h0Z"/><path class="cls-4" d="M91.27,217.99c5.81-5.42,11.62-10.85,17.43-16.27l-3.18,1.32c26.69,0,53.39,0,80.08,0,5.79,0,5.8-9,0-9-14.01,0-28.02,0-42.03,0-9.17,0-18.35,0-27.52,0-3.98,0-10.33-1.2-13.73,1.34-6.24,4.66-11.71,10.93-17.41,16.26-4.24,3.96,2.13,10.32,6.36,6.36h0Z"/><path class="cls-1" d="M83.89,224.58c-1.88,1.34-4.27,1.74-5.94-.21-1.46-1.69-1.18-4.3,.56-5.69s4.22-1.04,5.57,.66c1.64,2.07,.71,4.41-1.09,5.94-4.42,3.76,1.97,10.1,6.36,6.36,5.41-4.6,6-12.82,1.47-18.23-4.4-5.26-12.41-5.99-17.78-1.82s-6.63,12.11-2.63,17.68c4.11,5.72,12.25,7.21,18.03,3.08,1.98-1.41,2.92-3.92,1.61-6.16-1.14-1.95-4.17-3.03-6.16-1.61Z"/><path class="cls-4" d="M130.47,225.5c-1.88,1.34-4.27,1.74-5.94-.21-1.46-1.69-1.18-4.3,.56-5.69s4.22-1.04,5.57,.66c1.64,2.07,.71,4.41-1.09,5.94-4.42,3.76,1.97,10.1,6.36,6.36,5.41-4.6,6-12.82,1.47-18.23-4.4-5.26-12.41-5.99-17.78-1.82s-6.63,12.11-2.63,17.68c4.11,5.72,12.25,7.21,18.03,3.08,1.98-1.41,2.92-3.92,1.61-6.16-1.14-1.95-4.17-3.03-6.16-1.61Z"/><path class="cls-4" d="M106.91,170.45c-8.09-8.09-16.17-16.17-24.26-24.26-4.1-4.1-10.47,2.26-6.36,6.36,8.09,8.09,16.17,16.17,24.26,24.26,4.1,4.1,10.47-2.26,6.36-6.36h0Z"/><path class="cls-4" d="M174.35,117.18c-12.15,0-24.31,0-36.46,0l3.18,1.32c-7.83-7.83-15.66-15.66-23.49-23.49-4.1-4.1-10.47,2.26-6.36,6.36,4.38,4.38,8.77,8.77,13.15,13.15l8.11,8.11c1.7,1.7,2.89,3.23,5.44,3.54,6.04,.73,12.62,0,18.69,0s11.82,0,17.73,0,5.8-9,0-9h0Z"/><path class="cls-2" d="M176.65,75.96h-28.6c1.06,.44,2.12,.88,3.18,1.32-15.97-16.02-31.95-32.04-47.92-48.06-4.09-4.11-10.46,2.26-6.36,6.36,9.51,9.53,19.01,19.07,28.52,28.6l16.42,16.47c.96,.97,1.89,2.14,2.97,2.98,2.16,1.69,4.53,1.33,7.12,1.33h24.68c5.79,0,5.8-9,0-9h0Z"/><path class="cls-4" d="M142.71,22.74c11.43,11.43,22.87,22.87,34.3,34.3,4.1,4.1,10.47-2.26,6.36-6.36-11.43-11.43-22.87-22.87-34.3-34.3-4.1-4.1-10.47,2.26-6.36,6.36h0Z"/><path class="cls-4" d="M175.95,148.8c-19.16,0-38.32,0-57.48,0l3.18,1.32c-9.16-9.16-18.32-18.32-27.48-27.48l-14.92-14.92c-.9-.9-1.88-2.19-3.02-2.82-2.1-1.15-5.35-.61-7.63-.61-7.61,0-15.22,0-22.83,0-5.79,0-5.8,9,0,9,9.4,0,18.79,0,28.19,0l-3.18-1.32c12.65,12.65,25.3,25.3,37.95,37.95,3.65,3.65,6.4,7.88,11.85,7.88h29.11c8.76,0,17.51,0,26.27,0,5.79,0,5.8-9,0-9h0Z"/><path class="cls-4" d="M22.75,198.46c11.92,0,24.3,1.04,36.16,0,4.7-.41,8.13-5.58,11.29-8.74,4.3-4.3,8.6-8.6,12.9-12.9l-3.18,1.32c28.02,0,56.04,0,84.06,0,3.99,0,7.98,0,11.97,0,5.79,0,5.8-9,0-9-16.83,0-33.66,0-50.5,0-10.96,0-21.92,0-32.87,0-4.4,0-12.23-1.51-15.96,1.44s-7.01,7.01-10.39,10.39l-9.82,9.82,3.18-1.32c-12.28,0-24.56,0-36.85,0-5.79,0-5.8,9,0,9h0Z"/><path class="cls-4" d="M90.39,249.73c-9.76,9.76-19.52,19.52-29.27,29.27l3.18-1.32c-8.58,.01-17.16,.03-25.74,.04-5.79,0-5.8,9.01,0,9,6.36,0,12.71-.02,19.07-.03,2.15,0,4.53,.27,6.67,0,2.51-.32,3.69-1.83,5.35-3.49,9.03-9.03,18.07-18.07,27.1-27.1,4.1-4.1-2.26-10.47-6.36-6.36h0Z"/><path class="cls-4" d="M30.76,285.01c-1.88,1.34-4.27,1.74-5.94-.21-1.46-1.69-1.18-4.3,.56-5.69s4.22-1.04,5.57,.66c1.64,2.07,.71,4.41-1.09,5.94-4.42,3.76,1.97,10.1,6.36,6.36,5.41-4.6,6-12.82,1.47-18.23s-12.41-5.99-17.78-1.82-6.63,12.11-2.63,17.68c4.11,5.72,12.25,7.21,18.03,3.08,1.98-1.41,2.92-3.92,1.61-6.16-1.14-1.95-4.17-3.03-6.16-1.61Z"/><path class="cls-4" d="M15.84,196.74c-1.88,1.34-4.27,1.74-5.94-.21-1.46-1.69-1.18-4.3,.56-5.69s4.22-1.04,5.57,.66c1.64,2.07,.71,4.41-1.09,5.94-4.42,3.76,1.97,10.1,6.36,6.36,5.41-4.6,6-12.82,1.47-18.23-4.4-5.26-12.41-5.99-17.78-1.82s-6.63,12.11-2.63,17.68c4.11,5.72,12.25,7.21,18.03,3.08,1.98-1.41,2.92-3.92,1.61-6.16-1.14-1.95-4.17-3.03-6.16-1.61Z"/><path class="cls-4" d="M75.46,145.22c-1.88,1.34-4.27,1.74-5.94-.21-1.46-1.69-1.18-4.3,.56-5.69s4.22-1.04,5.57,.66c1.64,2.07,.71,4.41-1.09,5.94-4.42,3.76,1.97,10.1,6.36,6.36,5.41-4.6,6-12.82,1.47-18.23s-12.41-5.99-17.78-1.82-6.63,12.11-2.63,17.68c4.11,5.72,12.25,7.21,18.03,3.08,1.98-1.41,2.92-3.92,1.61-6.16-1.14-1.95-4.17-3.03-6.16-1.61Z"/><path class="cls-4" d="M110.61,93.8c-1.88,1.34-4.27,1.74-5.94-.21-1.46-1.69-1.18-4.3,.56-5.69s4.22-1.04,5.57,.66c1.64,2.07,.71,4.41-1.09,5.94-4.42,3.76,1.97,10.1,6.36,6.36,5.41-4.6,6-12.82,1.47-18.23s-12.41-5.99-17.78-1.82-6.63,12.11-2.63,17.68,12.25,7.21,18.03,3.08c1.98-1.41,2.92-3.92,1.61-6.16-1.14-1.95-4.17-3.03-6.16-1.61Z"/><path class="cls-4" d="M37.28,111.58c-1.88,1.34-4.27,1.74-5.94-.21-1.46-1.69-1.18-4.3,.56-5.69s4.22-1.04,5.57,.66c1.64,2.07,.71,4.41-1.09,5.94-4.42,3.76,1.97,10.1,6.36,6.36,5.41-4.6,6-12.82,1.47-18.23s-12.41-5.99-17.78-1.82-6.63,12.11-2.63,17.68,12.25,7.21,18.03,3.08c1.98-1.41,2.92-3.92,1.61-6.16-1.14-1.95-4.17-3.03-6.16-1.61Z"/><path class="cls-4" d="M142.15,15.68c-1.88,1.34-4.27,1.74-5.94-.21-1.46-1.69-1.18-4.3,.56-5.69s4.22-1.04,5.57,.66c1.64,2.07,.71,4.41-1.09,5.94-4.42,3.76,1.97,10.1,6.36,6.36,5.41-4.6,6-12.82,1.47-18.23-4.4-5.26-12.41-5.99-17.78-1.82s-6.63,12.11-2.63,17.68,12.25,7.21,18.03,3.08c1.98-1.41,2.92-3.92,1.61-6.16-1.14-1.95-4.17-3.03-6.16-1.61Z"/><path class="cls-4" d="M97.87,28.51c-1.88,1.34-4.27,1.74-5.94-.21-1.46-1.69-1.18-4.3,.56-5.69s4.22-1.04,5.57,.66c1.64,2.07,.71,4.41-1.09,5.94-4.42,3.76,1.97,10.1,6.36,6.36,5.41-4.6,6-12.82,1.47-18.23-4.4-5.26-12.41-5.99-17.78-1.82s-6.63,12.11-2.63,17.68,12.25,7.21,18.03,3.08c1.98-1.41,2.92-3.92,1.61-6.16-1.14-1.95-4.17-3.03-6.16-1.61Z"/></svg>